<?xml version="1.0" encoding="UTF-8"?>
<svg xmlns="http://www.w3.org/2000/svg" width="215.900mm" height="279.400mm" viewBox="0 0 215.900 279.400">
  <g id="cut">
    <path class="cut" style="fill:none;stroke:#111;stroke-width:0.2" d="M 108.3700 246.4688 L 147.2417 271.4000" />
    <path class="cut" style="fill:none;stroke:#111;stroke-width:0.2" d="M 207.9000 247.2984 L 130.8700 207.4976" />
    <path class="cut" style="fill:none;stroke:#111;stroke-width:0.2" d="M 63.3700 246.4688 L 62.2052 271.4000" />
    <path class="cut" style="fill:none;stroke:#111;stroke-width:0.2" d="M 109.5348 271.4000 L 108.3700 246.4688" />
    <path class="cut" style="fill:none;stroke:#111;stroke-width:0.2" d="M 40.8700 207.4976 L 8.0000 224.4813" />
    <path class="cut" style="fill:none;stroke:#111;stroke-width:0.2" d="M 24.4983 271.4000 L 63.3700 246.4688" />
    <path class="cut" style="fill:none;stroke:#111;stroke-width:0.2" d="M 63.3700 168.5265 L 8.0000 133.0137" />
    <path class="cut" style="fill:none;stroke:#111;stroke-width:0.2" d="M 8.0000 190.5140 L 40.8700 207.4976" />
    <path class="cut" style="fill:none;stroke:#111;stroke-width:0.2" d="M 108.3700 168.5265 L 115.8700 8.0000" />
    <path class="cut" style="fill:none;stroke:#111;stroke-width:0.2" d="M 115.8700 8.0000 L 55.8700 8.0000" />
    <path class="cut" style="fill:none;stroke:#111;stroke-width:0.2" d="M 55.8700 8.0000 L 63.3700 168.5265" />
    <path class="cut" style="fill:none;stroke:#111;stroke-width:0.2" d="M 130.8700 207.4976 L 207.9000 167.6969" />
    <path class="cut" style="fill:none;stroke:#111;stroke-width:0.2" d="M 207.9000 104.6907 L 108.3700 168.5265" />
    <path class="cut" style="fill:none;stroke:#111;stroke-width:0.2" d="M 147.2417 271.4000 L 109.5348 271.4000" />
    <path class="cut" style="fill:none;stroke:#111;stroke-width:0.2" d="M 207.9000 167.6969 L 207.9000 247.2984" />
    <path class="cut" style="fill:none;stroke:#111;stroke-width:0.2" d="M 62.2052 271.4000 L 24.4983 271.4000" />
    <path class="cut" style="fill:none;stroke:#111;stroke-width:0.2" d="M 8.0000 224.4813 L 8.0000 190.5140" />
  </g>
  <g id="score">
    <path class="score" style="fill:none;stroke:#0a66c2;stroke-width:0.15;stroke-dasharray:1 1" d="M 130.8700 207.4976 L 108.3700 246.4688" />
    <path class="score" style="fill:none;stroke:#0a66c2;stroke-width:0.15;stroke-dasharray:1 1" d="M 108.3700 246.4688 L 63.3700 246.4688" />
    <path class="score" style="fill:none;stroke:#0a66c2;stroke-width:0.15;stroke-dasharray:1 1" d="M 63.3700 246.4688 L 40.8700 207.4976" />
    <path class="score" style="fill:none;stroke:#0a66c2;stroke-width:0.15;stroke-dasharray:1 1" d="M 40.8700 207.4976 L 63.3700 168.5265" />
    <path class="score" style="fill:none;stroke:#0a66c2;stroke-width:0.15;stroke-dasharray:1 1" d="M 63.3700 168.5265 L 108.3700 168.5265" />
    <path class="score" style="fill:none;stroke:#0a66c2;stroke-width:0.15;stroke-dasharray:1 1" d="M 108.3700 168.5265 L 130.8700 207.4976" />
  </g>
  <g id="guide">
    
  </g>
</svg>