<?xml version="1.0" encoding="UTF-8"?>
<svg xmlns="http://www.w3.org/2000/svg" width="241.263mm" height="356.059mm" viewBox="0 0 241.263 356.059">
  <g id="cut">
    <path class="cut" style="fill:none;stroke:#111;stroke-width:0.2" d="M 251.2634 10.0000 L 251.2514 13.9270 L 251.2154 17.8538 L 251.1555 21.7803 L 251.0715 25.7064 L 250.9636 29.6319 L 250.8316 33.5567 L 250.6757 37.4806 L 250.4959 41.4034 L 250.2920 45.3251 L 250.0643 49.2455 L 249.8125 53.1644 L 249.5369 57.0817 L 249.2373 60.9972 L 248.9138 64.9109 L 248.5664 68.8225 L 248.1951 72.7318 L 247.7999 76.6389 L 247.3809 80.5435 L 246.9380 84.4454 L 246.4713 88.3445 L 245.9808 92.2408 L 245.4664 96.1339 L 244.9284 100.0239 L 244.3665 103.9105 L 243.7809 107.7935 L 243.1717 111.6730 L 242.5387 115.5486 L 241.8820 119.4203 L 241.2018 123.2879 L 240.4979 127.1513 L 239.7704 131.0103 L 239.0193 134.8648 L 238.2448 138.7147 L 237.4467 142.5597 L 236.6251 146.3998 L 235.7801 150.2348 L 234.9117 154.0645 L 234.0199 157.8889 L 233.1048 161.7078 L 232.1663 165.5210 L 231.2046 169.3284 L 230.2196 173.1298 L 229.2114 176.9252 L 228.1801 180.7143 L 227.1256 184.4971 L 226.0480 188.2733 L 224.9474 192.0429 L 223.8238 195.8057 L 222.6772 199.5616 L 221.5077 203.3104 L 220.3153 207.0520 L 219.1001 210.7862 L 217.8621 214.5129 L 216.6013 218.2320 L 215.3179 221.9434 L 214.0117 225.6468 L 212.6830 229.3421 L 211.3318 233.0293 L 209.9580 236.7082 L 208.5618 240.3786 L 207.1432 244.0404 L 205.7023 247.6934 L 204.2390 251.3376 L 202.7536 254.9728 L 201.2459 258.5989 L 199.7161 262.2156 L 198.1643 265.8230 L 196.5904 269.4208 L 194.9946 273.0089 L 193.3769 276.5872 L 191.7374 280.1556 L 190.0761 283.7138 L 188.3931 287.2619 L 186.6885 290.7996 L 184.9623 294.3268 L 183.2145 297.8435 L 181.4453 301.3493 L 179.6548 304.8444 L 177.8429 308.3284 L 176.0097 311.8012 L 174.1554 315.2628 L 172.2800 318.7130 L 170.3835 322.1517 L 168.4660 325.5788 L 166.5277 328.9940 L 164.5685 332.3974 L 162.5886 335.7887 L 160.5880 339.1679 L 158.5667 342.5347 L 156.5250 345.8892 L 154.4628 349.2311 L 152.3802 352.5604 L 150.2773 355.8769 L 148.1542 359.1805 L 146.0110 362.4710 L 143.8476 365.7484 L 10.0000 276.8113 L 11.6225 274.3533 L 13.2299 271.8854 L 14.8222 269.4077 L 16.3994 266.9203 L 17.9614 264.4234 L 19.5080 261.9169 L 21.0393 259.4011 L 22.5552 256.8759 L 24.0557 254.3415 L 25.5406 251.7980 L 27.0100 249.2455 L 28.4638 246.6841 L 29.9019 244.1138 L 31.3242 241.5348 L 32.7308 238.9471 L 34.1216 236.3509 L 35.4964 233.7463 L 36.8553 231.1333 L 38.1983 228.5120 L 39.5252 225.8826 L 40.8360 223.2451 L 42.1306 220.5997 L 43.4091 217.9464 L 44.6714 215.2854 L 45.9173 212.6167 L 47.1470 209.9404 L 48.3602 207.2567 L 49.5571 204.5656 L 50.7375 201.8672 L 51.9014 199.1617 L 53.0487 196.4491 L 54.1794 193.7296 L 55.2935 191.0032 L 56.3910 188.2701 L 57.4717 185.5303 L 58.5356 182.7839 L 59.5828 180.0311 L 60.6131 177.2720 L 61.6265 174.5066 L 62.6231 171.7351 L 63.6027 168.9575 L 64.5653 166.1740 L 65.5108 163.3847 L 66.4393 160.5896 L 67.3508 157.7890 L 68.2451 154.9828 L 69.1222 152.1712 L 69.9821 149.3543 L 70.8248 146.5322 L 71.6503 143.7050 L 72.4585 140.8728 L 73.2493 138.0357 L 74.0228 135.1939 L 74.7790 132.3474 L 75.5177 129.4963 L 76.2390 126.6407 L 76.9428 123.7808 L 77.6292 120.9167 L 78.2980 118.0484 L 78.9494 115.1761 L 79.5831 112.2998 L 80.1993 109.4198 L 80.7978 106.5360 L 81.3788 103.6486 L 81.9421 100.7577 L 82.4877 97.8635 L 83.0156 94.9659 L 83.5258 92.0652 L 84.0183 89.1615 L 84.4930 86.2547 L 84.9500 83.3452 L 85.3892 80.4328 L 85.8105 77.5179 L 86.2141 74.6005 L 86.5998 71.6806 L 86.9677 68.7584 L 87.3178 65.8340 L 87.6499 62.9076 L 87.9642 59.9792 L 88.2606 57.0489 L 88.5390 54.1168 L 88.7996 51.1832 L 89.0422 48.2479 L 89.2669 45.3113 L 89.4737 42.3733 L 89.6625 39.4341 L 89.8333 36.4938 L 89.9862 33.5526 L 90.1211 30.6104 L 90.2380 27.6675 L 90.3369 24.7239 L 90.4179 21.7798 L 90.4809 18.8352 L 90.5258 15.8903 L 90.5528 12.9452 L 90.5618 10.0000 Z" />
    <path class="cut" style="fill:none;stroke:#111;stroke-width:0.2" d="M 10.0000 276.8113 L 15.1331 289.8271 L 29.1211 289.5166 Z" />
    <path class="cut" style="fill:none;stroke:#111;stroke-width:0.2" d="M 29.1211 289.5166 L 34.2542 302.5324 L 48.2422 302.2219 Z" />
    <path class="cut" style="fill:none;stroke:#111;stroke-width:0.2" d="M 48.2422 302.2219 L 53.3753 315.2377 L 67.3633 314.9272 Z" />
    <path class="cut" style="fill:none;stroke:#111;stroke-width:0.2" d="M 67.3633 314.9272 L 72.4964 327.9430 L 86.4844 327.6325 Z" />
    <path class="cut" style="fill:none;stroke:#111;stroke-width:0.2" d="M 86.4844 327.6325 L 91.6175 340.6483 L 105.6055 340.3378 Z" />
    <path class="cut" style="fill:none;stroke:#111;stroke-width:0.2" d="M 105.6055 340.3378 L 110.7386 353.3536 L 124.7266 353.0431 Z" />
    <path class="cut" style="fill:none;stroke:#111;stroke-width:0.2" d="M 124.7266 353.0431 L 129.8597 366.0589 L 143.8476 365.7484 Z" />
  </g>
  <g id="score">
    <path class="score" style="fill:none;stroke:#0a66c2;stroke-width:0.15;stroke-dasharray:1 1" d="M 10.0000 276.8113 L 143.8476 365.7484" />
  </g>
  <g id="guide">
    <path class="guide" style="fill:none;stroke:#888;stroke-width:0.1;stroke-dasharray:0.6 0.6" d="M 69.9821 149.3543 L 223.8238 195.8057" />
  </g>
</svg>