<?xml version="1.0" encoding="UTF-8"?>
<svg xmlns="http://www.w3.org/2000/svg" width="460" height="320" viewBox="0 0 460 320">
  <line x1="200.548" y1="287.264" x2="225.092" y2="231.572" stroke="#111" stroke-width="1.2" />
  <line x1="225.092" y1="231.572" x2="225.092" y2="54.956" stroke="#111" stroke-width="1.2" />
  <line x1="225.092" y1="54.956" x2="200.548" y2="110.647" stroke="#111" stroke-width="1.2" />
  <line x1="200.548" y1="110.647" x2="200.548" y2="287.264" stroke="#111" stroke-width="1.2" />
  <line x1="225.092" y1="231.572" x2="145.089" y2="192.617" stroke="#111" stroke-width="1.2" />
  <line x1="145.089" y1="192.617" x2="145.089" y2="16.000" stroke="#111" stroke-width="1.2" />
  <line x1="145.089" y1="16.000" x2="225.092" y2="54.956" stroke="#111" stroke-width="1.2" />
  <line x1="145.089" y1="192.617" x2="40.544" y2="209.353" stroke="#111" stroke-width="1.2" />
  <line x1="40.544" y1="209.353" x2="40.544" y2="32.736" stroke="#111" stroke-width="1.2" />
  <line x1="40.544" y1="32.736" x2="145.089" y2="16.000" stroke="#111" stroke-width="1.2" />
  <line x1="40.544" y1="209.353" x2="16.000" y2="265.044" stroke="#111" stroke-width="1.2" />
  <line x1="16.000" y1="265.044" x2="16.000" y2="88.428" stroke="#111" stroke-width="1.2" />
  <line x1="16.000" y1="88.428" x2="40.544" y2="32.736" stroke="#111" stroke-width="1.2" />
  <line x1="16.000" y1="265.044" x2="96.002" y2="304.000" stroke="#111" stroke-width="1.2" />
  <line x1="96.002" y1="304.000" x2="96.002" y2="127.383" stroke="#111" stroke-width="1.2" />
  <line x1="96.002" y1="127.383" x2="16.000" y2="88.428" stroke="#111" stroke-width="1.2" />
  <line x1="96.002" y1="304.000" x2="200.548" y2="287.264" stroke="#111" stroke-width="1.2" />
  <line x1="200.548" y1="110.647" x2="96.002" y2="127.383" stroke="#111" stroke-width="1.2" />
</svg>