<?xml version="1.0" encoding="UTF-8"?>
<svg xmlns="http://www.w3.org/2000/svg" width="460" height="320" viewBox="0 0 460 320">
  <rect x="0" y="0" width="460" height="320" fill="#ffffff" />
  <line x1="255.347" y1="274.011" x2="266.026" y2="226.480" stroke="#111827" stroke-width="1.7" />
  <line x1="266.026" y1="226.480" x2="213.136" y2="40.432" stroke="#111827" stroke-width="1.7" />
  <line x1="213.136" y1="40.432" x2="206.975" y2="67.854" stroke="#111827" stroke-width="1.7" />
  <line x1="206.975" y1="67.854" x2="255.347" y2="274.011" stroke="#111827" stroke-width="1.7" />
  <line x1="266.026" y1="226.480" x2="203.474" y2="189.251" stroke="#111827" stroke-width="1.7" />
  <line x1="203.474" y1="189.251" x2="177.048" y2="18.954" stroke="#111827" stroke-width="1.7" />
  <line x1="177.048" y1="18.954" x2="213.136" y2="40.432" stroke="#111827" stroke-width="1.7" />
  <line x1="203.474" y1="189.251" x2="104.333" y2="184.131" stroke="#111827" stroke-width="1.7" />
  <line x1="104.333" y1="184.131" x2="119.851" y2="16.000" stroke="#111827" stroke-width="1.7" />
  <line x1="119.851" y1="16.000" x2="177.048" y2="18.954" stroke="#111827" stroke-width="1.7" />
  <line x1="104.333" y1="184.131" x2="26.679" y2="214.120" stroke="#111827" stroke-width="1.7" />
  <line x1="26.679" y1="214.120" x2="75.051" y2="33.301" stroke="#111827" stroke-width="1.7" />
  <line x1="75.051" y1="33.301" x2="119.851" y2="16.000" stroke="#111827" stroke-width="1.7" />
  <line x1="26.679" y1="214.120" x2="16.000" y2="261.651" stroke="#111827" stroke-width="1.7" />
  <line x1="16.000" y1="261.651" x2="68.890" y2="60.723" stroke="#111827" stroke-width="1.7" />
  <line x1="68.890" y1="60.723" x2="75.051" y2="33.301" stroke="#111827" stroke-width="1.7" />
  <line x1="16.000" y1="261.651" x2="78.552" y2="298.880" stroke="#111827" stroke-width="1.7" />
  <line x1="78.552" y1="298.880" x2="104.978" y2="82.201" stroke="#111827" stroke-width="1.7" />
  <line x1="104.978" y1="82.201" x2="68.890" y2="60.723" stroke="#111827" stroke-width="1.7" />
  <line x1="78.552" y1="298.880" x2="177.693" y2="304.000" stroke="#111827" stroke-width="1.7" />
  <line x1="177.693" y1="304.000" x2="162.174" y2="85.155" stroke="#111827" stroke-width="1.7" />
  <line x1="162.174" y1="85.155" x2="104.978" y2="82.201" stroke="#111827" stroke-width="1.7" />
  <line x1="177.693" y1="304.000" x2="255.347" y2="274.011" stroke="#111827" stroke-width="1.7" />
  <line x1="206.975" y1="67.854" x2="162.174" y2="85.155" stroke="#111827" stroke-width="1.7" />
</svg>