<?xml version="1.0" encoding="UTF-8"?>
<svg xmlns="http://www.w3.org/2000/svg" width="460" height="320" viewBox="0 0 460 320">
  <rect x="0" y="0" width="460" height="320" fill="#ffffff" />
  <line x1="254.549" y1="263.235" x2="290.380" y2="245.738" stroke="#111827" stroke-width="1.7" />
  <line x1="290.380" y1="245.738" x2="312.525" y2="137.549" stroke="#111827" stroke-width="1.7" />
  <line x1="312.525" y1="137.549" x2="290.380" y2="88.181" stroke="#111827" stroke-width="1.7" />
  <line x1="290.380" y1="88.181" x2="254.549" y2="165.859" stroke="#111827" stroke-width="1.7" />
  <line x1="254.549" y1="165.859" x2="254.549" y2="263.235" stroke="#111827" stroke-width="1.7" />
  <line x1="149.746" y1="141.686" x2="254.549" y2="165.859" stroke="#111827" stroke-width="1.7" />
  <line x1="290.380" y1="88.181" x2="207.721" y2="16.000" stroke="#111827" stroke-width="1.7" />
  <line x1="207.721" y1="16.000" x2="120.804" y2="49.067" stroke="#111827" stroke-width="1.7" />
  <line x1="120.804" y1="49.067" x2="149.746" y2="141.686" stroke="#111827" stroke-width="1.7" />
  <line x1="312.525" y1="137.549" x2="243.552" y2="95.879" stroke="#111827" stroke-width="1.7" />
  <line x1="243.552" y1="95.879" x2="178.779" y2="20.757" stroke="#111827" stroke-width="1.7" />
  <line x1="178.779" y1="20.757" x2="207.721" y2="16.000" stroke="#111827" stroke-width="1.7" />
  <line x1="120.804" y1="304.000" x2="207.721" y2="270.933" stroke="#111827" stroke-width="1.7" />
  <line x1="207.721" y1="270.933" x2="290.380" y2="245.738" stroke="#111827" stroke-width="1.7" />
  <line x1="254.549" y1="263.235" x2="149.746" y2="299.243" stroke="#111827" stroke-width="1.7" />
  <line x1="149.746" y1="299.243" x2="120.804" y2="304.000" stroke="#111827" stroke-width="1.7" />
  <line x1="207.721" y1="270.933" x2="178.779" y2="178.314" stroke="#111827" stroke-width="1.7" />
  <line x1="178.779" y1="178.314" x2="243.552" y2="95.879" stroke="#111827" stroke-width="1.7" />
  <line x1="149.746" y1="141.686" x2="84.973" y2="224.121" stroke="#111827" stroke-width="1.7" />
  <line x1="84.973" y1="224.121" x2="149.746" y2="299.243" stroke="#111827" stroke-width="1.7" />
  <line x1="16.000" y1="182.451" x2="84.973" y2="224.121" stroke="#111827" stroke-width="1.7" />
  <line x1="120.804" y1="49.067" x2="38.145" y2="74.262" stroke="#111827" stroke-width="1.7" />
  <line x1="38.145" y1="74.262" x2="16.000" y2="182.451" stroke="#111827" stroke-width="1.7" />
  <line x1="38.145" y1="231.819" x2="120.804" y2="304.000" stroke="#111827" stroke-width="1.7" />
  <line x1="16.000" y1="182.451" x2="38.145" y2="231.819" stroke="#111827" stroke-width="1.7" />
  <line x1="178.779" y1="178.314" x2="73.975" y2="154.141" stroke="#111827" stroke-width="1.7" />
  <line x1="73.975" y1="154.141" x2="73.975" y2="56.765" stroke="#111827" stroke-width="1.7" />
  <line x1="73.975" y1="56.765" x2="178.779" y2="20.757" stroke="#111827" stroke-width="1.7" />
  <line x1="73.975" y1="56.765" x2="38.145" y2="74.262" stroke="#111827" stroke-width="1.7" />
  <line x1="38.145" y1="231.819" x2="73.975" y2="154.141" stroke="#111827" stroke-width="1.7" />
</svg>