<?xml version="1.0" encoding="UTF-8"?>
<svg xmlns="http://www.w3.org/2000/svg" width="414.566mm" height="350.550mm" viewBox="0 0 414.566 350.550">
  <rect x="0" y="0" width="414.566" height="350.550" fill="#ffffff" />
  <g id="cut">
    <path class="cut" style="fill:none;stroke:#111827;stroke-width:0.8;stroke-linecap:round;stroke-linejoin:round" d="M 285.2534 221.2369 L 393.5830 254.7176" />
    <path class="cut" style="fill:none;stroke:#111827;stroke-width:0.8;stroke-linecap:round;stroke-linejoin:round" d="M 393.5830 254.7176 L 404.5665 228.2011" />
    <path class="cut" style="fill:none;stroke:#111827;stroke-width:0.8;stroke-linecap:round;stroke-linejoin:round" d="M 404.5665 228.2011 L 304.2915 175.2750" />
    <path class="cut" style="fill:none;stroke:#111827;stroke-width:0.8;stroke-linecap:round;stroke-linejoin:round" d="M 239.2915 240.2750 L 292.2176 340.5500" />
    <path class="cut" style="fill:none;stroke:#111827;stroke-width:0.8;stroke-linecap:round;stroke-linejoin:round" d="M 292.2176 340.5500 L 318.7341 329.5665" />
    <path class="cut" style="fill:none;stroke:#111827;stroke-width:0.8;stroke-linecap:round;stroke-linejoin:round" d="M 318.7341 329.5665 L 285.2534 221.2369" />
    <path class="cut" style="fill:none;stroke:#111827;stroke-width:0.8;stroke-linecap:round;stroke-linejoin:round" d="M 193.3296 221.2369 L 159.8489 329.5665" />
    <path class="cut" style="fill:none;stroke:#111827;stroke-width:0.8;stroke-linecap:round;stroke-linejoin:round" d="M 159.8489 329.5665 L 186.3654 340.5500" />
    <path class="cut" style="fill:none;stroke:#111827;stroke-width:0.8;stroke-linecap:round;stroke-linejoin:round" d="M 186.3654 340.5500 L 239.2915 240.2750" />
    <path class="cut" style="fill:none;stroke:#111827;stroke-width:0.8;stroke-linecap:round;stroke-linejoin:round" d="M 174.2915 175.2750 L 74.0165 228.2011" />
    <path class="cut" style="fill:none;stroke:#111827;stroke-width:0.8;stroke-linecap:round;stroke-linejoin:round" d="M 85.0000 254.7176 L 193.3296 221.2369" />
    <path class="cut" style="fill:none;stroke:#111827;stroke-width:0.8;stroke-linecap:round;stroke-linejoin:round" d="M 193.3296 129.3131 L 85.0000 95.8324" />
    <path class="cut" style="fill:none;stroke:#111827;stroke-width:0.8;stroke-linecap:round;stroke-linejoin:round" d="M 85.0000 95.8324 L 74.0165 122.3489" />
    <path class="cut" style="fill:none;stroke:#111827;stroke-width:0.8;stroke-linecap:round;stroke-linejoin:round" d="M 239.2915 110.2750 L 186.3654 10.0000" />
    <path class="cut" style="fill:none;stroke:#111827;stroke-width:0.8;stroke-linecap:round;stroke-linejoin:round" d="M 186.3654 10.0000 L 159.8489 20.9835" />
    <path class="cut" style="fill:none;stroke:#111827;stroke-width:0.8;stroke-linecap:round;stroke-linejoin:round" d="M 159.8489 20.9835 L 193.3296 129.3131" />
    <path class="cut" style="fill:none;stroke:#111827;stroke-width:0.8;stroke-linecap:round;stroke-linejoin:round" d="M 285.2534 129.3131 L 318.7341 20.9835" />
    <path class="cut" style="fill:none;stroke:#111827;stroke-width:0.8;stroke-linecap:round;stroke-linejoin:round" d="M 318.7341 20.9835 L 292.2176 10.0000" />
    <path class="cut" style="fill:none;stroke:#111827;stroke-width:0.8;stroke-linecap:round;stroke-linejoin:round" d="M 292.2176 10.0000 L 239.2915 110.2750" />
    <path class="cut" style="fill:none;stroke:#111827;stroke-width:0.8;stroke-linecap:round;stroke-linejoin:round" d="M 304.2915 175.2750 L 404.5665 122.3489" />
    <path class="cut" style="fill:none;stroke:#111827;stroke-width:0.8;stroke-linecap:round;stroke-linejoin:round" d="M 404.5665 122.3489 L 393.5830 95.8324" />
    <path class="cut" style="fill:none;stroke:#111827;stroke-width:0.8;stroke-linecap:round;stroke-linejoin:round" d="M 393.5830 95.8324 L 285.2534 129.3131" />
    <path class="cut" style="fill:none;stroke:#111827;stroke-width:0.8;stroke-linecap:round;stroke-linejoin:round" d="M 74.0165 228.2011 L 47.5000 217.2176" />
    <path class="cut" style="fill:none;stroke:#111827;stroke-width:0.8;stroke-linecap:round;stroke-linejoin:round" d="M 47.5000 217.2176 L 20.9835 228.2011" />
    <path class="cut" style="fill:none;stroke:#111827;stroke-width:0.8;stroke-linecap:round;stroke-linejoin:round" d="M 20.9835 228.2011 L 10.0000 254.7176" />
    <path class="cut" style="fill:none;stroke:#111827;stroke-width:0.8;stroke-linecap:round;stroke-linejoin:round" d="M 10.0000 254.7176 L 20.9835 281.2341" />
    <path class="cut" style="fill:none;stroke:#111827;stroke-width:0.8;stroke-linecap:round;stroke-linejoin:round" d="M 20.9835 281.2341 L 47.5000 292.2176" />
    <path class="cut" style="fill:none;stroke:#111827;stroke-width:0.8;stroke-linecap:round;stroke-linejoin:round" d="M 47.5000 292.2176 L 74.0165 281.2341" />
    <path class="cut" style="fill:none;stroke:#111827;stroke-width:0.8;stroke-linecap:round;stroke-linejoin:round" d="M 74.0165 281.2341 L 85.0000 254.7176" />
    <path class="cut" style="fill:none;stroke:#111827;stroke-width:0.8;stroke-linecap:round;stroke-linejoin:round" d="M 74.0165 122.3489 L 69.3487 131.1926 L 81.1829 139.1349 L 96.2846 140.8866 L 106.2516 152.3664 L 121.3533 154.1182 L 131.3204 165.5980 L 146.4221 167.3497 L 156.3891 178.8295 L 169.6237 184.1187 L 174.2915 175.2750" />
  </g>
  <g id="score">
    <path class="score" style="fill:none;stroke:#1d4ed8;stroke-width:0.65;stroke-dasharray:2.2 1.4;stroke-linecap:round" d="M 304.2915 175.2750 L 285.2534 221.2369" />
    <path class="score" style="fill:none;stroke:#1d4ed8;stroke-width:0.65;stroke-dasharray:2.2 1.4;stroke-linecap:round" d="M 285.2534 221.2369 L 239.2915 240.2750" />
    <path class="score" style="fill:none;stroke:#1d4ed8;stroke-width:0.65;stroke-dasharray:2.2 1.4;stroke-linecap:round" d="M 239.2915 240.2750 L 193.3296 221.2369" />
    <path class="score" style="fill:none;stroke:#1d4ed8;stroke-width:0.65;stroke-dasharray:2.2 1.4;stroke-linecap:round" d="M 193.3296 221.2369 L 174.2915 175.2750" />
    <path class="score" style="fill:none;stroke:#1d4ed8;stroke-width:0.65;stroke-dasharray:2.2 1.4;stroke-linecap:round" d="M 74.0165 228.2011 L 85.0000 254.7176" />
    <path class="score" style="fill:none;stroke:#1d4ed8;stroke-width:0.65;stroke-dasharray:2.2 1.4;stroke-linecap:round" d="M 174.2915 175.2750 L 193.3296 129.3131" />
    <path class="score" style="fill:none;stroke:#1d4ed8;stroke-width:0.65;stroke-dasharray:2.2 1.4;stroke-linecap:round" d="M 74.0165 122.3489 L 174.2915 175.2750" />
    <path class="score" style="fill:none;stroke:#1d4ed8;stroke-width:0.65;stroke-dasharray:2.2 1.4;stroke-linecap:round" d="M 193.3296 129.3131 L 239.2915 110.2750" />
    <path class="score" style="fill:none;stroke:#1d4ed8;stroke-width:0.65;stroke-dasharray:2.2 1.4;stroke-linecap:round" d="M 239.2915 110.2750 L 285.2534 129.3131" />
    <path class="score" style="fill:none;stroke:#1d4ed8;stroke-width:0.65;stroke-dasharray:2.2 1.4;stroke-linecap:round" d="M 285.2534 129.3131 L 304.2915 175.2750" />
  </g>
  <g id="guide">
    
  </g>
</svg>